PathFileType	4	(X/Y/Z)	C:/Users/opensim2020/Desktop/walking_exp_matlab/subject02_walking09_straight_04.trc	
DataRate	CameraRate	NumFrames	NumMarkers	Units	OrigDataRate	OrigDataStartFrame	OrigNumFrames	
100.00	100.00	9	42	mm	100.00	3113	285	
Frame#	Time	LFHD			RFHD			LBHD			RBHD			C7			T10			CLAV			STRN			RBAK			LSHO			LUPA			LELB			LFRM			LWRA			LWRB			LFIN			RSHO			RUPA			RELB			RFRM			RWRA			RWRB			RFIN			LASI			RASI			LPSI			RPSI			LTHI			LKNE			LTIB			LANK			LHEE			LTOE			RTHI			RKNE			RTIB			RANK			RHEE			RTOE			*39			*40			*41			
		X1	Y1	Z1	X2	Y2	Z2	X3	Y3	Z3	X4	Y4	Z4	X5	Y5	Z5	X6	Y6	Z6	X7	Y7	Z7	X8	Y8	Z8	X9	Y9	Z9	X10	Y10	Z10	X11	Y11	Z11	X12	Y12	Z12	X13	Y13	Z13	X14	Y14	Z14	X15	Y15	Z15	X16	Y16	Z16	X17	Y17	Z17	X18	Y18	Z18	X19	Y19	Z19	X20	Y20	Z20	X21	Y21	Z21	X22	Y22	Z22	X23	Y23	Z23	X24	Y24	Z24	X25	Y25	Z25	X26	Y26	Z26	X27	Y27	Z27	X28	Y28	Z28	X29	Y29	Z29	X30	Y30	Z30	X31	Y31	Z31	X32	Y32	Z32	X33	Y33	Z33	X34	Y34	Z34	X35	Y35	Z35	X36	Y36	Z36	X37	Y37	Z37	X38	Y38	Z38	X39	Y39	Z39	X40	Y40	Z40	X41	Y41	Z41	X42	Y42	Z42	

107	1.060	1545.08484	144.66760	1747.51392	1402.16479	154.26041	1731.78845	1560.13379	269.98999	1665.37378	1419.21399	291.52469	1648.68213	1487.36328	325.08099	1526.85022	1487.77612	375.13663	1251.23376	1490.27856	186.11139	1460.34839	1478.55994	131.60011	1289.34827	1428.13550	384.00455	1351.39294	1663.26575	240.41296	1501.89148	1756.32861	212.47008	1306.29102	1777.92932	179.41162	1170.15784	1786.21375	124.99109	1048.74084	1741.20093	38.31435	948.42139	1782.92859	75.13620	936.46942	1783.30994	32.62278	885.72455	1296.67261	256.63495	1493.79407	1219.96521	296.32150	1301.15149	1211.61768	288.06979	1153.70801	1195.54688	266.64658	1035.29846	1216.96594	224.79167	906.53790	1185.97412	272.69537	905.06726	1184.69971	238.89137	840.12500	1613.39026	137.67461	993.81769	1359.18799	149.32576	980.26300	1542.54321	349.51834	1034.61804	1427.97168	360.23328	1032.09619	1658.50513	205.94926	679.38269	1626.13879	252.25624	479.12146	1621.82837	318.07480	294.21326	1577.68970	325.57629	72.28432	1525.64954	361.14520	45.66251	1595.00024	170.46599	33.84547	1269.25000	179.90479	681.51038	1280.27917	138.15163	483.90994	1287.31860	246.95630	333.98016	1325.67053	331.52579	162.73557	1391.31519	366.35699	116.38623	1269.62427	228.40530	56.78836	1464.26257	256.09003	1809.52698	-3360.36475	2845.14990	1034.23938			 
108	1.070	1544.90552	135.63457	1747.36353	1401.83582	145.57172	1731.03381	1560.44458	261.01538	1665.58887	1419.66357	283.13589	1648.43408	1488.38037	316.62894	1526.80115	1488.60669	367.43515	1251.38696	1490.64612	177.86363	1459.84692	1479.37793	123.80174	1288.89880	1429.35901	376.07141	1351.40979	1663.96265	231.54240	1502.04065	1757.82556	203.08476	1307.15295	1779.81226	168.87212	1171.06836	1787.82849	112.95024	1050.28125	1742.31763	24.93937	951.01532	1784.30017	61.61817	938.68927	1784.70032	18.28586	888.64636	1297.43494	249.05910	1493.30945	1220.99561	290.26031	1301.14001	1212.47998	283.23264	1153.53809	1195.96094	262.08881	1034.92603	1217.37915	220.74971	906.13892	1186.65088	268.64511	904.70605	1185.33105	235.35759	839.76123	1614.54773	129.29980	992.84003	1359.87805	141.91594	980.30652	1542.71094	342.39005	1034.48425	1428.16370	353.02200	1032.52893	1658.29773	200.92442	678.82550	1625.89868	248.77443	478.83002	1621.71069	316.31445	294.56226	1577.60388	325.42194	72.62791	1525.54541	361.05960	46.09749	1595.04712	170.36600	33.79567	1269.71069	170.38429	682.10840	1281.52441	125.38199	484.53671	1287.71545	228.55104	330.24387	1325.14014	306.45786	155.53773	1390.46008	339.82239	107.48859	1270.07043	198.26643	54.74218	1463.98193	247.00571	1809.32166	-3360.22559	2845.13184	1034.16455			 
109	1.080	1544.16504	126.28419	1746.94092	1401.61841	137.00697	1730.39050	1560.71313	252.00902	1665.71375	1420.03271	274.65921	1648.05408	1489.28870	308.21024	1526.73560	1489.31018	359.65649	1251.40515	1491.30469	169.44386	1459.69482	1480.18030	115.91273	1288.39746	1430.75610	368.63895	1351.37524	1664.48926	222.77367	1502.07019	1758.92871	193.42802	1307.71545	1781.48010	158.47751	1171.86731	1789.32642	101.13903	1051.71362	1743.75952	12.13350	953.82001	1785.55054	48.48723	940.73065	1785.40259	4.25756	891.12610	1298.39221	241.87540	1492.81824	1222.43506	284.90823	1300.92664	1213.20728	278.22684	1153.30713	1196.80835	257.92706	1034.37695	1217.55286	216.39262	905.54047	1187.41333	264.65283	904.38226	1185.84680	231.35565	839.29010	1615.41199	122.00791	991.52405	1360.35107	134.58130	980.14490	1542.75415	335.23944	1034.30286	1428.31165	345.88556	1032.76965	1657.98694	196.05594	678.17072	1625.64502	245.30792	478.53879	1621.44006	314.14426	294.76489	1577.50574	325.15515	72.89986	1525.41211	360.97516	46.55614	1595.11621	170.29329	33.71473	1270.17554	161.06219	682.65930	1282.71008	113.04994	484.96246	1287.94836	210.26869	326.46887	1324.66455	281.28180	148.76698	1389.22156	313.04126	98.76926	1270.35864	168.28485	52.57458	1463.70471	237.95303	1809.23706	-3357.31396	2845.86938	1034.19653			 
110	1.090	1543.74353	117.25262	1746.65710	1400.82214	128.41888	1729.29761	1560.82153	243.00595	1665.73938	1420.33948	266.34006	1647.70447	1489.96106	299.79095	1526.63074	1489.83789	351.84427	1251.34497	1491.77637	161.46910	1459.17212	1480.71558	107.94340	1287.66174	1431.55188	360.47623	1351.07434	1665.02246	214.04277	1502.13989	1759.81958	183.95547	1308.20422	1782.95752	148.23090	1172.60986	1790.65625	89.56835	1052.98950	1744.67603	-0.60785	956.07013	1786.70117	35.60175	942.64368	1786.72791	-9.08459	893.77649	1299.02820	234.48491	1492.20483	1223.12952	278.60516	1300.47583	1213.83862	273.06427	1153.00024	1197.36255	253.66562	1033.88086	1218.02649	212.00058	905.20544	1188.28137	260.51126	904.05756	1186.32813	227.36583	838.79260	1616.07141	115.03626	989.98718	1360.51929	127.01952	980.01782	1542.76099	328.11801	1034.14624	1428.34863	338.77206	1032.76599	1657.79932	191.32051	677.59479	1625.42139	241.88272	478.28290	1621.40076	312.27921	295.15140	1577.44495	324.92249	73.20728	1525.34082	361.08456	47.21492	1595.22693	170.25093	33.65833	1270.75684	151.86034	682.93542	1283.95142	101.06630	485.25845	1288.04138	191.97308	322.69345	1323.96204	255.92029	141.92332	1388.48132	286.32883	90.75371	1270.69629	138.17915	51.12472	1463.21191	228.88437	1808.69824	-3360.24512	2845.15625	1034.06958			 
111	1.100	1542.72229	107.97614	1745.92700	1400.19006	119.91113	1728.46411	1560.89478	233.98322	1665.68176	1420.51563	257.92484	1647.21179	1490.63684	291.38959	1526.39441	1490.01819	343.83997	1251.05762	1492.07361	153.12834	1458.63269	1481.46045	100.11855	1287.15833	1432.42273	352.88745	1350.81946	1665.21973	205.29132	1501.88965	1760.55786	174.56572	1308.62598	1784.25488	138.06737	1173.23706	1791.92639	78.28751	1054.13013	1745.91235	-12.79707	958.44537	1787.84351	23.13961	944.38855	1787.84021	-22.26362	896.15485	1299.30164	226.78146	1491.47546	1224.16821	272.82617	1300.11646	1214.37061	267.74704	1152.66345	1197.64038	248.26250	1033.72449	1218.38293	207.14795	904.92725	1188.90149	255.99051	903.60571	1186.83606	222.83371	838.41736	1616.46094	107.97531	988.44763	1360.49536	119.70071	979.56036	1542.68604	320.97235	1033.89478	1428.42590	331.61441	1032.56226	1657.62622	186.64169	677.03058	1625.18542	238.53464	478.06927	1621.14429	310.19919	295.40363	1577.52991	324.81375	73.84734	1525.14722	360.94241	47.59571	1595.27661	170.19733	33.58254	1271.59204	142.60181	683.25684	1285.15674	89.46229	485.31256	1288.12341	173.89949	318.90393	1323.26892	230.55077	135.26266	1387.47314	259.37909	82.62598	1270.90564	108.16026	50.23113	1462.69507	219.84666	1808.23022	-3360.30029	2845.20508	1034.14880			 
112	1.110	1542.16150	98.96981	1745.65674	1399.40381	111.36058	1727.49658	1560.81433	224.88501	1665.50049	1420.55273	249.46762	1646.66040	1491.08069	282.95181	1526.09827	1490.27148	335.98535	1250.89160	1492.16406	144.59639	1457.96545	1481.71912	92.06625	1286.28125	1433.25293	345.20313	1350.75159	1665.29578	196.51224	1501.66211	1761.11108	165.20299	1308.86914	1785.30640	128.13492	1173.69617	1792.95276	67.23312	1055.20093	1746.73413	-24.95567	960.24487	1788.56458	10.67875	945.84058	1788.61096	-35.01590	898.17767	1299.79370	219.30994	1490.77600	1224.68518	266.07883	1299.88745	1214.80176	262.25620	1152.25879	1198.38928	244.06972	1033.06982	1218.46375	202.24969	904.27649	1189.33716	251.00670	903.04590	1186.79016	218.08136	837.67444	1616.61609	100.79044	987.08124	1360.30652	112.46954	978.96448	1542.50769	313.78528	1033.58020	1428.38306	324.43024	1032.21545	1657.46021	182.00398	676.43256	1624.96863	235.30318	477.87558	1620.81567	308.35382	295.52048	1577.45142	324.58224	74.25711	1525.08826	360.93958	48.25489	1595.38135	170.13887	33.56355	1271.77783	134.11913	683.13019	1286.49915	78.45201	485.22885	1288.15625	155.87033	315.08191	1322.38232	204.73839	128.95973	1385.89124	231.78929	74.96770	1270.76355	78.14671	49.75961	1462.13989	210.88599	1807.71741	-3360.08643	2845.08423	1034.18457			 
113	1.120	1541.28052	89.82708	1744.97021	1398.81152	102.86445	1726.62219	1560.66602	215.87584	1665.24072	1420.55664	241.04408	1646.00232	1491.36377	274.47415	1525.69727	1490.45142	328.12912	1250.63269	1492.23462	136.35298	1457.15808	1481.96448	84.22115	1285.37781	1433.53333	337.11697	1350.37878	1665.67102	188.07680	1501.57556	1761.65247	156.11974	1309.10876	1786.17163	118.43256	1174.05078	1793.87659	56.43628	1056.00940	1747.86707	-36.64107	962.26624	1789.63330	-0.96366	947.32025	1789.30383	-47.57169	899.88745	1300.11536	211.62607	1490.06812	1224.96033	259.09918	1299.69116	1215.21863	256.56519	1151.98157	1198.49976	238.39409	1032.71069	1218.65625	197.03157	903.66864	1189.99011	246.16359	902.56934	1187.32947	213.18935	837.30133	1616.54382	93.53036	985.87811	1360.08057	105.08222	978.41980	1542.25537	306.54239	1033.18225	1428.27246	317.12158	1031.73804	1657.30103	177.35674	675.92053	1624.71826	232.15579	477.68762	1620.72021	306.84183	296.22925	1577.40063	324.35211	74.72773	1525.00732	360.78842	48.89055	1595.48267	170.10658	33.50775	1272.17090	125.30254	683.02399	1287.85876	67.90376	484.83243	1288.11304	138.07121	311.26630	1321.37061	178.90269	123.02807	1384.33777	203.97412	67.77288	1271.26001	47.85199	49.38628	1461.55127	201.97960	1807.19702	-3357.23096	2845.98047	1034.21790			 
114	1.130	1540.13342	80.73311	1744.23230	1397.87341	94.40664	1725.60083	1560.35803	206.82106	1664.87891	1420.37268	232.72321	1645.29944	1491.57043	266.04968	1525.22681	1490.50757	320.20496	1250.29956	1492.26648	128.25726	1456.41406	1482.26392	76.20705	1284.64709	1433.84265	329.15085	1350.11145	1665.50403	179.38197	1501.03772	1761.85156	147.09850	1309.00171	1786.79834	108.86176	1174.15674	1794.56421	45.90648	1056.67212	1748.50208	-48.08285	963.58246	1790.45691	-12.44697	948.51221	1790.42041	-59.30003	901.63104	1300.00916	203.55319	1489.13416	1225.63269	253.33144	1299.25659	1215.67236	250.70490	1151.33838	1198.58215	232.60059	1032.08777	1218.74939	191.70862	903.00977	1190.45972	240.96078	902.01752	1187.45422	208.07153	836.70789	1616.24744	86.17594	984.86621	1359.52441	97.28796	977.78778	1541.91516	299.24496	1032.68433	1428.07068	309.73581	1031.19141	1657.10474	172.82036	675.41162	1624.39929	229.05980	477.54868	1620.40369	305.22308	296.69434	1577.30432	324.16068	75.20171	1524.72058	360.34326	49.06116	1595.58557	170.11253	33.47636	1272.38757	116.91771	682.57062	1289.23779	57.99958	484.17822	1288.09277	120.35835	307.50482	1320.29419	152.73555	117.47411	1383.00537	176.00653	61.18874	1271.21765	18.24340	49.61480	1460.75012	193.02449	1806.45154	-3360.24878	2845.16431	1034.16724			 
115	1.140	1539.11316	71.62082	1743.62109	1396.86035	85.97211	1724.53638	1559.96558	197.81009	1664.41162	1420.14612	224.25533	1644.53906	1491.54126	257.51639	1524.67285	1490.48145	312.28635	1249.91125	1492.10522	119.58337	1455.56152	1482.23267	68.32977	1283.65417	1433.96814	321.08109	1349.60803	1665.16565	170.54675	1500.45422	1761.93274	138.27074	1308.85352	1787.27844	99.53001	1174.16248	1795.25024	35.60915	1057.16699	1749.56140	-59.07656	965.07233	1791.12012	-23.58686	949.43323	1791.15247	-70.80076	902.96008	1300.16687	195.70482	1488.42432	1225.61804	246.31563	1298.77576	1215.70972	244.52768	1150.77087	1198.70972	226.87268	1031.59656	1218.65186	185.99301	902.19916	1190.77246	235.38445	901.24225	1187.59448	202.75664	836.04285	1615.68921	78.81591	983.94330	1359.02039	89.73991	976.97516	1541.54260	291.85583	1032.11987	1427.74072	302.21677	1030.60669	1656.78906	168.25079	674.87048	1624.09277	226.08299	477.48459	1619.89221	303.47800	297.16891	1577.18262	323.95227	75.74002	1524.52148	360.19763	49.67036	1595.71936	170.09541	33.42792	1272.65625	108.56519	682.09540	1290.98218	48.30885	483.24310	1288.02600	102.77531	303.87656	1319.22974	126.78975	112.44909	1381.58032	147.99188	55.20194	1271.26587	-11.22946	50.28888	1459.99683	184.17999	1805.81335	-3360.37109	2845.15039	1033.96057			 
